<svg xmlns="http://www.w3.org/2000/svg" viewBox="0 0 128 128">
  <!-- House body -->
  <rect x="30" y="60" width="68" height="50" rx="3" fill="#5B8DEF"/>
  <!-- Roof -->
  <polygon points="24,62 64,28 104,62" fill="#3B6DD4"/>
  <!-- Door -->
  <rect x="54" y="80" width="20" height="30" rx="2" fill="#2D5ABF"/>
  <circle cx="70" cy="96" r="2" fill="#FFD700"/>
  <!-- Window -->
  <rect x="38" y="72" width="12" height="12" rx="2" fill="#FFF9C4"/>
  <rect x="78" y="72" width="12" height="12" rx="2" fill="#FFF9C4"/>
  <!-- Sparkles around house -->
  <polygon points="20,30 22,24 24,30 30,32 24,34 22,40 20,34 14,32" fill="#FFD700"/>
  <polygon points="100,20 102,14 104,20 110,22 104,24 102,30 100,24 94,22" fill="#FFD700"/>
  <polygon points="50,14 51,10 52,14 56,15 52,16 51,20 50,16 46,15" fill="#FFD700"/>
  <circle cx="14" cy="50" r="3" fill="#FFD700"/>
  <circle cx="114" cy="45" r="2" fill="#FFD700"/>
  <circle cx="80" cy="12" r="2" fill="#FFD700"/>
  <!-- Sparkle lines -->
  <line x1="34" y1="18" x2="38" y2="22" stroke="#FFD700" stroke-width="2" stroke-linecap="round"/>
  <line x1="90" y1="14" x2="86" y2="18" stroke="#FFD700" stroke-width="2" stroke-linecap="round"/>
  <line x1="110" y1="56" x2="116" y2="52" stroke="#FFD700" stroke-width="2" stroke-linecap="round"/>
</svg>