<svg xmlns="http://www.w3.org/2000/svg" viewBox="0 0 128 128">
  <!-- House body -->
  <rect x="32" y="64" width="64" height="48" rx="3" fill="#68D391"/>
  <!-- Roof -->
  <polygon points="26,66 64,32 102,66" fill="#38A169"/>
  <!-- Door -->
  <rect x="54" y="84" width="20" height="28" rx="2" fill="#276749"/>
  <circle cx="70" cy="100" r="2" fill="#FFD700"/>
  <!-- Windows -->
  <rect x="38" y="74" width="12" height="12" rx="2" fill="#FFF9C4"/>
  <rect x="78" y="74" width="12" height="12" rx="2" fill="#FFF9C4"/>
  <!-- Confetti pieces -->
  <rect x="16" y="20" width="6" height="10" rx="1" fill="#E53E3E" transform="rotate(25,19,25)"/>
  <rect x="40" y="8" width="5" height="9" rx="1" fill="#5B8DEF" transform="rotate(-15,42,12)"/>
  <rect x="80" y="6" width="6" height="10" rx="1" fill="#FFD700" transform="rotate(35,83,11)"/>
  <rect x="104" y="18" width="5" height="9" rx="1" fill="#E53E3E" transform="rotate(-20,106,22)"/>
  <rect x="8" y="44" width="5" height="8" rx="1" fill="#FFD700" transform="rotate(40,10,48)"/>
  <rect x="112" y="40" width="6" height="9" rx="1" fill="#5B8DEF" transform="rotate(-30,115,44)"/>
  <!-- Confetti circles -->
  <circle cx="24" cy="32" r="4" fill="#FFD700"/>
  <circle cx="60" cy="4" r="3" fill="#E53E3E"/>
  <circle cx="96" cy="14" r="3" fill="#9F7AEA"/>
  <circle cx="118" cy="30" r="3" fill="#FFD700"/>
  <circle cx="10" cy="56" r="3" fill="#9F7AEA"/>
  <!-- Confetti triangles -->
  <polygon points="70,10 74,2 78,10" fill="#9F7AEA"/>
  <polygon points="50,18 54,10 58,18" fill="#FFD700"/>
  <polygon points="100,30 104,22 108,30" fill="#68D391"/>
</svg>