<svg xmlns="http://www.w3.org/2000/svg" viewBox="0 0 128 128">
  <!-- Keyring -->
  <circle cx="64" cy="32" r="16" fill="none" stroke="#DAA520" stroke-width="5"/>
  <!-- Key 1 -->
  <g transform="translate(52, 48)">
    <rect x="0" y="0" width="6" height="40" rx="2" fill="#DAA520"/>
    <rect x="-4" y="34" width="14" height="6" rx="2" fill="#DAA520"/>
    <rect x="-2" y="26" width="10" height="6" rx="2" fill="#DAA520"/>
    <circle cx="3" cy="0" r="6" fill="#FFD700" stroke="#DAA520" stroke-width="2"/>
  </g>
  <!-- Key 2 -->
  <g transform="translate(70, 48)">
    <rect x="0" y="0" width="6" height="34" rx="2" fill="#B8860B"/>
    <rect x="-3" y="28" width="12" height="5" rx="2" fill="#B8860B"/>
    <circle cx="3" cy="0" r="5" fill="#DAA520" stroke="#B8860B" stroke-width="2"/>
  </g>
  <!-- Sparkles -->
  <circle cx="28" cy="24" r="3" fill="#FFD700"/>
  <circle cx="100" cy="24" r="2" fill="#FFD700"/>
  <circle cx="40" cy="60" r="2" fill="#FFD700"/>
  <circle cx="92" cy="50" r="3" fill="#FFD700"/>
  <!-- Star sparkle -->
  <polygon points="20,50 22,46 24,50 28,52 24,54 22,58 20,54 16,52" fill="#FFD700"/>
  <polygon points="104,40 106,36 108,40 112,42 108,44 106,48 104,44 100,42" fill="#FFD700"/>
</svg>