<svg xmlns="http://www.w3.org/2000/svg" viewBox="0 0 128 128">
  <!-- Document -->
  <rect x="12" y="20" width="64" height="88" rx="4" fill="#FFFFFF"/>
  <rect x="12" y="20" width="64" height="88" rx="4" fill="none" stroke="#A0AEC0" stroke-width="2"/>
  <!-- Document lines -->
  <rect x="22" y="32" width="44" height="4" rx="2" fill="#E2E8F0"/>
  <rect x="22" y="42" width="44" height="4" rx="2" fill="#E2E8F0"/>
  <rect x="22" y="52" width="32" height="4" rx="2" fill="#E2E8F0"/>
  <rect x="22" y="62" width="44" height="4" rx="2" fill="#E2E8F0"/>
  <rect x="22" y="72" width="38" height="4" rx="2" fill="#E2E8F0"/>
  <rect x="22" y="82" width="44" height="4" rx="2" fill="#E2E8F0"/>
  <rect x="22" y="92" width="24" height="4" rx="2" fill="#E2E8F0"/>
  <!-- Magnifying glass -->
  <circle cx="88" cy="56" r="28" fill="none" stroke="#5B8DEF" stroke-width="6"/>
  <circle cx="88" cy="56" r="22" fill="#5B8DEF" opacity="0.15"/>
  <!-- Glass handle -->
  <line x1="108" y1="76" x2="122" y2="96" stroke="#5B8DEF" stroke-width="8" stroke-linecap="round"/>
  <!-- Gleam on glass -->
  <path d="M76,40 Q72,48 76,56" fill="none" stroke="#FFFFFF" stroke-width="3" stroke-linecap="round" opacity="0.6"/>
</svg>