<svg xmlns="http://www.w3.org/2000/svg" viewBox="0 0 128 128">
  <!-- Face circle -->
  <circle cx="64" cy="68" r="52" fill="#FBBF24"/>
  <circle cx="64" cy="68" r="48" fill="#F59E0B"/>
  <!-- Heart eyes - left -->
  <path d="M38,54 C38,54 32,46 26,54 C20,62 32,70 38,76 C44,70 56,62 50,54 C44,46 38,54 38,54Z" fill="#E53E3E"/>
  <!-- Heart eyes - right -->
  <path d="M90,54 C90,54 84,46 78,54 C72,62 84,70 90,76 C96,70 108,62 102,54 C96,46 90,54 90,54Z" fill="#E53E3E"/>
  <!-- Happy mouth -->
  <path d="M40,88 Q64,110 88,88" fill="none" stroke="#92400E" stroke-width="4" stroke-linecap="round"/>
  <!-- Blush cheeks -->
  <ellipse cx="30" cy="88" rx="8" ry="5" fill="#F97316" opacity="0.4"/>
  <ellipse cx="98" cy="88" rx="8" ry="5" fill="#F97316" opacity="0.4"/>
  <!-- Small hearts floating -->
  <path d="M14,24 C14,24 11,20 8,24 C5,28 11,32 14,36 C17,32 23,28 20,24 C17,20 14,24 14,24Z" fill="#FC8181"/>
  <path d="M110,18 C110,18 107,14 104,18 C101,22 107,26 110,30 C113,26 119,22 116,18 C113,14 110,18 110,18Z" fill="#FC8181"/>
</svg>