<svg xmlns="http://www.w3.org/2000/svg" viewBox="0 0 128 128">
  <!-- Outer glow circle -->
  <circle cx="64" cy="64" r="56" fill="#9F7AEA" opacity="0.2"/>
  <!-- Main circle -->
  <circle cx="64" cy="64" r="48" fill="#9F7AEA"/>
  <circle cx="64" cy="64" r="44" fill="#805AD5"/>
  <!-- Inner ring -->
  <circle cx="64" cy="64" r="38" fill="none" stroke="#D6BCFA" stroke-width="2" opacity="0.5"/>
  <!-- "10" text -->
  <text x="64" y="78" text-anchor="middle" font-family="Arial,sans-serif" font-weight="bold" font-size="46" fill="#FFFFFF">10</text>
  <!-- Crown on top -->
  <g transform="translate(38, 8)">
    <polygon points="26,22 4,22 10,8 18,16 26,0 34,16 42,8 48,22" fill="#FFD700"/>
    <circle cx="10" cy="8" r="3" fill="#FFD700"/>
    <circle cx="26" cy="0" r="3" fill="#FFD700"/>
    <circle cx="42" cy="8" r="3" fill="#FFD700"/>
  </g>
  <!-- Sparkles -->
  <polygon points="12,44 14,38 16,44 22,46 16,48 14,54 12,48 6,46" fill="#FFD700"/>
  <polygon points="112,44 114,38 116,44 122,46 116,48 114,54 112,48 106,46" fill="#FFD700"/>
  <polygon points="20,90 22,86 24,90 28,92 24,94 22,98 20,94 16,92" fill="#FFD700"/>
  <polygon points="104,86 106,82 108,86 112,88 108,90 106,94 104,90 100,88" fill="#FFD700"/>
  <!-- Small sparkle dots -->
  <circle cx="6" cy="64" r="2" fill="#FFD700"/>
  <circle cx="122" cy="64" r="2" fill="#FFD700"/>
  <circle cx="40" cy="118" r="2.5" fill="#D6BCFA"/>
  <circle cx="88" cy="118" r="2.5" fill="#D6BCFA"/>
</svg>